<?xml version="1.0" encoding="UTF-8" standalone="no"?>
<svg width="170px" height="170px" viewBox="0 0 170 170" version="1.1" xmlns="http://www.w3.org/2000/svg" xmlns:xlink="http://www.w3.org/1999/xlink" xmlns:sketch="http://www.bohemiancoding.com/sketch/ns">
  <!-- Generator: Sketch 3.3.3 (12072) - http://www.bohemiancoding.com/sketch -->
  <title>icn-api-gray</title>
  <desc>Created with Sketch.</desc>
  <defs></defs>
  <g id="assets" stroke="none" stroke-width="1" fill="none" fill-rule="evenodd" sketch:type="MSPage">
    <g sketch:type="MSArtboardGroup" transform="translate(-2105.000000, -942.000000)" id="icn-api-gray">
      <g sketch:type="MSLayerGroup" transform="translate(2105.000000, 942.000000)">
        <g sketch:type="MSShapeGroup">
          <path d="M85,168 L85,168 C130.839634,168 168,130.839634 168,85 C168,39.1603658 130.839634,2 85,2 C39.1603658,2 2,39.1603658 2,85 C2,130.839634 39.1603658,168 85,168 L85,168 Z M85,170 L85,170 C38.0557963,170 0,131.944204 0,85 C0,38.0557963 38.0557963,0 85,0 C131.944204,0 170,38.0557963 170,85 C170,131.944204 131.944204,170 85,170 L85,170 Z" id="Shape" fill="#FFFFFF"></path>
          <g id="icn" transform="translate(43.000000, 40.000000)" stroke="#FFFFFF" stroke-width="3">
            <path d="M19.5,56 L0,56 L0,84 L28,84 L28,73 L56,73 L56,84 L84,84 L84,56 L64.5,56 L50.5,28 L56,28 L56,0 L28,0 L28,28 L33.5,28 L19.5,56 Z" id="Rectangle-49"></path>
            <rect id="Rectangle-49" x="0" y="56" width="28" height="28"></rect>
            <rect id="Rectangle-49" x="56" y="56" width="28" height="28"></rect>
            <rect id="Rectangle-49" x="28" y="0" width="28" height="28"></rect>
          </g>
        </g>
      </g>
    </g>
  </g>
</svg>
