<?xml version="1.0" encoding="UTF-8" standalone="no"?>
<svg width="170px" height="170px" viewBox="0 0 170 170" version="1.1" xmlns="http://www.w3.org/2000/svg" xmlns:xlink="http://www.w3.org/1999/xlink" xmlns:sketch="http://www.bohemiancoding.com/sketch/ns">
  <!-- Generator: Sketch 3.3.3 (12072) - http://www.bohemiancoding.com/sketch -->
  <title>icn-accessibility-gray</title>
  <desc>Created with Sketch.</desc>
  <defs></defs>
  <g id="assets" stroke="none" stroke-width="1" fill="none" fill-rule="evenodd" sketch:type="MSPage">
    <g sketch:type="MSArtboardGroup" transform="translate(-2308.000000, -942.000000)" id="icn-accessibility-gray" fill="#FFFFFF">
      <g sketch:type="MSLayerGroup" transform="translate(2308.000000, 942.000000)">
        <g sketch:type="MSShapeGroup">
          <path d="M85,168 L85,168 C130.839634,168 168,130.839634 168,85 C168,39.1603658 130.839634,2 85,2 C39.1603658,2 2,39.1603658 2,85 C2,130.839634 39.1603658,168 85,168 L85,168 Z M85,170 L85,170 C38.0557963,170 0,131.944204 0,85 C0,38.0557963 38.0557963,0 85,0 C131.944204,0 170,38.0557963 170,85 C170,131.944204 131.944204,170 85,170 L85,170 Z" id="Shape"></path>
          <g id="icn" transform="translate(52.000000, 42.000000)">
            <path d="M33.392,14.786 C37.478,14.786 40.785,11.475 40.785,7.393 C40.785,3.311 37.478,0 33.392,0 C29.307,0 26,3.311 26,7.393 C26,11.475 29.306,14.786 33.392,14.786 L33.392,14.786 Z" id="Shape"></path>
            <path d="M33.816,51.334 C33.816,51.396 33.99,51.502 34,51.492 L34,82.728 C34,85.088 35.459,87 37.816,87 C40.175,87 41.816,85.088 41.816,82.729 L41.816,24.727 L60,31 C63,32 62.477,31.816 62.816,31.816 C64.267,31.816 65.355,30.884 65.816,29.426 C66.382,27.625 65.615,25.706 63.816,25.138 L39.816,16.627 C39.816,16.627 36.146,15.049 33,15.049 C28.931,15.049 26.297,16.627 26.297,16.627 L2.39,25.138 C0.59,25.706 -0.408,27.625 0.159,29.426 C0.726,31.225 2.643,32.225 4.447,31.657 L23.338,24.727 L23.338,82.729 C23.338,85.088 25.251,87 27.61,87 C29.969,87 31.882,85.088 31.882,82.729 L31.882,51.492 C31.892,51.502 31.882,51.396 31.882,51.334" id="Shape"></path>
          </g>
        </g>
      </g>
    </g>
  </g>
</svg>
